<svg viewBox="0 0 23.0005 24.2503" xmlns="http://www.w3.org/2000/svg" xmlns:xlink="http://www.w3.org/1999/xlink" width="23.000488" height="24.250349" fill="none">
	<defs>
		<g id="pixso_custom_effect_0">
			<effect x="0.000000" y="4.000000" visibility="visible" fill="rgb(0,0,0)" fill-opacity="0.25" effectType="dropShadow" stdDeviation="4" radius="0" />
		</g>
		<filter id="filter_0" width="23.000488" height="24.250349" x="0.000000" y="0.000000" filterUnits="userSpaceOnUse" customEffect="url(#pixso_custom_effect_0)" color-interpolation-filters="sRGB">
			<feFlood flood-opacity="0" result="BackgroundImageFix" />
			<feColorMatrix result="hardAlpha" in="SourceAlpha" type="matrix" values="0 0 0 0 0 0 0 0 0 0 0 0 0 0 0 0 0 0 127 0 " />
			<feOffset dx="0.000000" dy="4.000000" in="hardAlpha" />
			<feGaussianBlur stdDeviation="1.33333337" />
			<feComposite k2="-1" k3="1" in2="hardAlpha" operator="out" />
			<feColorMatrix type="matrix" values="0 0 0 0 0 0 0 0 0 0 0 0 0 0 0 0 0 0 0.25 0 " />
			<feBlend result="effect_dropShadow_1" in2="BackgroundImageFix" mode="normal" />
			<feBlend result="shape" in="SourceGraphic" in2="effect_dropShadow_1" mode="normal" />
		</filter>
		<clipPath id="clipPath_0">
			<rect width="20.000000" height="20.000000" x="1.500000" y="0.000000" fill="rgb(255,255,255)" />
		</clipPath>
	</defs>
	<g clip-path="url(#clipPath_0)" filter="url(#filter_0)" customFrame="url(#clipPath_0)">
		<rect id="ArrowRight" width="20.000000" height="20.000000" x="1.500000" y="0.000000" fill="rgb(255,255,255)" fill-opacity="0" />
		<path id="Vector" d="M18.8172 10.4422L13.1922 16.0672C13.0749 16.1845 12.9159 16.2503 12.75 16.2503C12.5841 16.2503 12.4251 16.1845 12.3078 16.0672C12.1905 15.9499 12.1247 15.7909 12.1247 15.625C12.1247 15.4591 12.1905 15.3001 12.3078 15.1828L16.8664 10.625L4.625 10.625C4.45924 10.625 4.30027 10.5592 4.18306 10.4419C4.06585 10.3247 4 10.1658 4 10C4 9.83424 4.06585 9.67527 4.18306 9.55806C4.30027 9.44085 4.45924 9.375 4.625 9.375L16.8664 9.375L12.3078 4.81719C12.1905 4.69991 12.1247 4.54085 12.1247 4.375C12.1247 4.20915 12.1905 4.05009 12.3078 3.93281C12.4251 3.81554 12.5841 3.74965 12.75 3.74965C12.9159 3.74965 13.0749 3.81554 13.1922 3.93281L18.8172 9.55781C18.8753 9.61586 18.9214 9.68479 18.9529 9.76066C18.9843 9.83654 19.0005 9.91787 19.0005 10C19.0005 10.0821 18.9843 10.1635 18.9529 10.2393C18.9214 10.3152 18.8753 10.3841 18.8172 10.4422Z" fill="rgb(255,255,255)" fill-rule="nonzero" />
	</g>
</svg>
