<svg viewBox="0 0 20 20" xmlns="http://www.w3.org/2000/svg" xmlns:xlink="http://www.w3.org/1999/xlink" width="20.000000" height="20.000000" fill="none">
	<rect id="clarity:email-line" width="20.000000" height="20.000000" x="0.000000" y="0.000000" fill="rgb(255,255,255)" fill-opacity="0" />
	<path id="Vector" d="M17.7778 3.33331L2.2222 3.33331C1.92751 3.33331 1.64489 3.45038 1.43652 3.65875C1.22815 3.86712 1.11108 4.14974 1.11108 4.44442L1.11108 15.5555C1.11108 15.8502 1.22815 16.1328 1.43652 16.3412C1.64489 16.5496 1.92751 16.6666 2.2222 16.6666L17.7778 16.6666C18.0724 16.6666 18.3551 16.5496 18.5634 16.3412C18.7718 16.1328 18.8889 15.8502 18.8889 15.5555L18.8889 4.44442C18.8889 4.14974 18.7718 3.86712 18.5634 3.65875C18.3551 3.45038 18.0724 3.33331 17.7778 3.33331ZM16.9222 15.5555L3.14442 15.5555L7.03331 11.5333L6.23331 10.7611L2.2222 14.9111L2.2222 5.28887L9.12775 12.1611C9.33593 12.368 9.61754 12.4842 9.91108 12.4842C10.2046 12.4842 10.4862 12.368 10.6944 12.1611L17.7778 5.11665L17.7778 14.8389L13.6889 10.75L12.9055 11.5333L16.9222 15.5555ZM2.94997 4.44442L16.8778 4.44442L9.91108 11.3722L2.94997 4.44442Z" fill="rgb(0,255,136)" fill-rule="nonzero" />
	<path id="Vector" d="M0 0L20 0L20 20L0 20L0 0Z" fill-rule="nonzero" />
</svg>
