<svg viewBox="0 0 20 20" xmlns="http://www.w3.org/2000/svg" xmlns:xlink="http://www.w3.org/1999/xlink" width="20.000000" height="20.000000" fill="none">
	<rect id="line-md:spotify" width="20.000000" height="20.000000" x="0.000000" y="0.000000" fill="rgb(255,255,255)" fill-opacity="0" />
	<g id="Group">
		<path id="Vector" d="M10 1.66669C14.6 1.66669 18.3334 5.40002 18.3334 10C18.3334 14.6 14.6 18.3334 10 18.3334C5.40002 18.3334 1.66669 14.6 1.66669 10C1.66669 5.40002 5.40002 1.66669 10 1.66669Z" fill-rule="nonzero" stroke="rgb(255,255,255)" stroke-linecap="round" stroke-linejoin="round" stroke-width="1.500000" />
		<path id="Vector" d="M7.19165 12.7584C9.00832 12.275 10.9333 12.475 12.6083 13.3334" fill-rule="nonzero" stroke="rgb(255,255,255)" stroke-linecap="round" stroke-linejoin="round" stroke-width="1.500000" />
		<path id="Vector" d="M6.25 10.0583C7.16667 9.74998 8.15 9.58331 9.16667 9.58331C10.85 9.58331 12.4333 10.0416 13.7917 10.8333" fill-rule="nonzero" stroke="rgb(255,255,255)" stroke-linecap="round" stroke-linejoin="round" stroke-width="1.500000" />
		<path id="Vector" d="M5.83331 7.42502C6.98331 6.93335 8.24998 6.66669 9.58331 6.66669C11.5916 6.66669 13.4583 7.28335 15 8.33335" fill-rule="nonzero" stroke="rgb(255,255,255)" stroke-linecap="round" stroke-linejoin="round" stroke-width="1.500000" />
	</g>
</svg>
